Coordinates
version=1
nRows=13
nColumns=38
inDegrees=no

Units are S.I. units (second, meters, Newtons, ...)
If the header above contains a line with 'inDegrees', this indicates whether rotational values are in degrees (yes) or radians (no).

endheader
time	pelvis_tilt	pelvis_list	pelvis_rotation	pelvis_tx	pelvis_ty	pelvis_tz	hip_flexion_r	hip_adduction_r	hip_rotation_r	knee_angle_r	ankle_angle_r	subtalar_angle_r	mtp_angle_r	hip_flexion_l	hip_adduction_l	hip_rotation_l	knee_angle_l	ankle_angle_l	subtalar_angle_l	mtp_angle_l	lumbar_extension	lumbar_bending	lumbar_rotation	arm_flex_r	arm_add_r	arm_rot_r	elbow_flex_r	pro_sup_r	wrist_flex_r	wrist_dev_r	arm_flex_l	arm_add_l	arm_rot_l	elbow_flex_l	pro_sup_l	wrist_flex_l	wrist_dev_l
1.59	3.11796	1.36294	-1.62648	0.830877	1.11338	0.965178	0.176234	0.009937	-0.0829316	0.634385	0.148046	0	0	0.17217	0.00614231	0.0496685	1.26501	-0.698132	0	0	-0.336732	0.0530851	0.0931041	0.30248	-0.416586	0.0821986	1.1551	0.903629	0	0	0.228945	-0.346947	0.0240012	1.20277	0.88543	0	0
1.6	3.11652	1.35997	-1.63166	0.832056	1.12363	0.967871	0.154182	0.0110235	-0.0784689	0.621381	0.153326	0	0	0.191332	0.00258384	0.0452881	1.24345	-0.698132	0	0	-0.341729	0.0514827	0.0960373	0.308235	-0.419651	0.0944716	1.15529	0.873805	0	0	0.229118	-0.347234	0.0214387	1.20129	0.88567	0	0
1.61	3.12179	1.35079	-1.64327	0.833386	1.13369	0.971317	0.124054	0.0101159	-0.0734084	0.604507	0.155484	0	0	0.199487	-0.000970841	0.0380451	1.21305	-0.698132	0	0	-0.354206	0.047362	0.098997	0.313616	-0.413365	0.0823139	1.14999	0.950088	0	0	0.231968	-0.348801	0.022408	1.19906	0.876537	0	0
1.62	3.12676	1.34533	-1.65351	0.834461	1.14372	0.974165	0.0995579	0.00855544	-0.0691187	0.590865	0.158642	0	0	0.21189	-0.00315381	0.0344946	1.1826	-0.698132	0	0	-0.362099	0.0441875	0.100874	0.318207	-0.411924	0.0834297	1.14966	0.950714	0	0	0.233864	-0.349575	0.0219174	1.19672	0.87496	0	0
1.63	3.13572	1.34045	-1.66704	0.835438	1.15364	0.976821	0.0763699	0.00540997	-0.0656628	0.578152	0.161943	0	0	0.223665	-0.00420383	0.0317037	1.14964	-0.698132	0	0	-0.369154	0.0400211	0.102483	0.321768	-0.40995	0.0826255	1.14954	0.951264	0	0	0.236263	-0.350221	0.0215308	1.19444	0.873607	0	0
1.64	-3.13463	1.33605	-1.6839	0.836335	1.16346	0.979292	0.0541002	0.000945647	-0.0630309	0.565603	0.1655	0	0	0.234707	-0.00422509	0.0296293	1.11392	-0.698132	0	0	-0.375564	0.0346869	0.103769	0.32473	-0.407646	0.0807722	1.14909	0.951259	0	0	0.23898	-0.350948	0.0211472	1.19272	0.87285	0	0
1.65	-3.11922	1.33245	-1.70283	0.837165	1.17319	0.981545	0.0331913	-0.00446391	-0.0616008	0.553456	0.169062	0	0	0.245348	-0.00368093	0.0280701	1.07591	-0.698132	0	0	-0.380953	0.0284271	0.104776	0.327323	-0.405354	0.0788344	1.14826	0.950169	0	0	0.241945	-0.351779	0.020822	1.19175	0.872778	0	0
1.66	-3.10347	1.33007	-1.72187	0.83795	1.18289	0.983531	0.0141118	-0.00998005	-0.0607562	0.541817	0.172449	0	0	0.256007	-0.00337813	0.0260359	1.03597	-0.698132	0	0	-0.384908	0.0218751	0.10582	0.329665	-0.403668	0.0776217	1.14745	0.947906	0	0	0.244886	-0.352619	0.0204968	1.19165	0.873482	0	0
1.67	-3.09027	1.32971	-1.73831	0.83864	1.19262	0.985138	-0.00239907	-0.0146032	-0.0603895	0.530846	0.176088	0	0	0.268211	-0.00471562	0.0219678	0.995744	-0.698132	0	0	-0.386506	0.0161762	0.107276	0.331375	-0.402362	0.0757037	1.14646	0.955873	0	0	0.247156	-0.353251	0.0205546	1.19257	0.873045	0	0
1.68	-3.10837	1.33233	-1.73271	0.840973	1.20378	0.985598	-0.0178018	-0.00872574	-0.0529801	0.519534	0.17859	0	0	0.278459	-0.0395502	-0.0142149	0.976534	-0.698132	0	0	-0.381745	0.014957	0.117262	0.331165	-0.406692	0.0911647	1.15104	0.878881	0	0	0.244218	-0.354074	0.0170743	1.19457	0.883576	0	0
1.69	-3.06188	1.32799	-1.7717	0.839525	1.21197	0.988036	-0.0349442	-0.0258214	-0.0630435	0.511125	0.183068	0	0	0.28509	-0.00233032	0.0230011	0.905592	-0.698132	0	0	-0.39072	0.00445538	0.108767	0.334855	-0.401154	0.0745046	1.1453	0.950959	0	0	0.251701	-0.353678	0.0190299	1.19564	0.881133	0	0
1.7	-3.07691	1.32978	-1.76624	0.84164	1.22333	0.988339	-0.0511679	-0.0209716	-0.059166	0.501028	0.185599	0	0	0.291308	-0.0361509	-0.0176665	0.880919	-0.698132	0	0	-0.386296	0.00286459	0.116972	0.332264	-0.400233	0.072972	1.14636	0.95476	0	0	0.249435	-0.354926	0.0174775	1.19781	0.881902	0	0
1.71	-3.03347	1.32513	-1.80255	0.839802	1.23148	0.990494	-0.0678194	-0.0386259	-0.0698228	0.493708	0.191527	0	0	0.290441	0.00546843	0.0398815	0.799716	-0.698132	0	0	-0.395645	-0.00653428	0.108741	0.335805	-0.399796	0.0668256	1.14536	0.970302	0	0	0.256685	-0.353196	0.0181723	1.1984	0.888148	0	0
